<svg width="50" height="49" viewBox="0 0 50 49" fill="none" xmlns="http://www.w3.org/2000/svg">
<path d="M24.7025 2.47359C24.9173 2.47359 25.0589 2.85841 25.0589 2.85841L31.8367 17.0411L47.7913 19.4355L36.2469 31.0636L38.9723 47.4706L24.7025 39.718L10.4327 47.4706L13.1582 31.0636L1.6138 19.4348L17.5684 17.0404L24.34 2.86976C24.34 2.86976 24.4878 2.47359 24.7025 2.47359ZM24.7025 0.600098C24.106 0.600098 23.5634 0.938807 23.3087 1.46955L16.524 15.6666L1.38136 17.9401C0.811029 18.0255 0.337678 18.4179 0.153725 18.9554C-0.0294575 19.4922 0.108315 20.085 0.511625 20.491L11.5134 31.5724L8.91341 47.2256C8.81797 47.7972 9.06349 48.3725 9.54608 48.7052C9.81085 48.8889 10.121 48.9819 10.432 48.9819C10.6875 48.9819 10.9446 48.9184 11.177 48.7929L24.7018 41.4449L38.2265 48.7929C38.459 48.9184 38.716 48.9819 38.9716 48.9819C39.2825 48.9819 39.5935 48.8889 39.8575 48.7052C40.34 48.3725 40.5856 47.7972 40.4901 47.2256L37.8902 31.5724L48.8919 20.491C49.2945 20.085 49.433 19.4922 49.2498 18.9554C49.0666 18.4179 48.5925 18.0263 48.0222 17.9401L32.8796 15.6674L26.0964 1.46955C25.8424 0.938807 25.299 0.600098 24.7025 0.600098Z" fill="#1A1A1A"/>
<path d="M24.7023 2.47363C24.917 2.47363 25.0586 2.85846 25.0586 2.85846L31.8364 17.0412L47.791 19.4356L36.2466 31.0636L38.9721 47.4706L24.7023 39.7181L10.4325 47.4706L13.1579 31.0636L1.61353 19.4348L17.5681 17.0404L24.3397 2.8698C24.3397 2.8698 24.4875 2.47363 24.7023 2.47363Z" fill="white"/>
</svg>
