<svg width="64" height="71" viewBox="0 0 64 71" fill="none" xmlns="http://www.w3.org/2000/svg">
<path d="M31.8594 0.172363C14.3516 0.172363 0.21875 15.0019 0.21875 33.3727C0.21875 40.8982 2.53906 47.9809 6.96875 53.7356L2.53906 67.9011C2.32812 68.7865 2.53906 69.6718 3.17188 70.3358C3.38281 70.7785 4.01562 70.9998 4.4375 70.9998C4.64844 70.9998 5.07031 70.9998 5.28125 70.7785L19.8359 63.9171C23.6328 65.6878 27.6406 66.5731 31.8594 66.5731C49.3672 66.5731 63.5 51.7436 63.5 33.3727C63.5 15.0019 49.3672 0.172363 31.8594 0.172363Z" fill="#25D366"/>
<path d="M50.2109 45.5464C49.3672 48.2024 46.2031 50.4157 43.4609 50.8584C42.8281 51.0797 42.1953 51.0797 41.3516 51.0797C39.6641 51.0797 37.1328 50.6371 32.7031 48.6451C27.6406 46.4317 22.5781 41.7836 18.5703 35.8076V35.5862C17.3047 33.5942 14.9844 29.8315 14.9844 25.8475C14.9844 20.9781 17.3047 18.5434 18.1484 17.4367C19.2031 16.33 20.6797 15.666 22.3672 15.666C22.7891 15.666 23 15.666 23.4219 15.666C24.8984 15.666 25.9531 16.1087 27.0078 18.322L27.8516 20.0927C28.4844 21.8634 29.3281 23.8554 29.5391 24.0768C30.1719 25.4048 30.1719 26.5115 29.5391 27.6181C29.3281 28.2822 28.9062 28.7248 28.4844 29.1675C28.2734 29.6102 28.0625 29.8315 27.8516 29.8315C27.6406 30.0528 27.6406 30.0528 27.4297 30.2742C28.0625 31.3809 29.3281 33.3729 31.0156 34.9222C33.5469 37.3569 35.4453 38.0209 36.5 38.4636C36.9219 38.0209 37.3437 37.1356 37.9766 36.4716L38.1875 36.0289C39.2422 34.4796 40.9297 34.0369 42.6172 34.7009C43.4609 35.1436 48.1016 37.3569 48.1016 37.3569L48.5234 37.5783C49.1562 38.0209 50 38.2423 50.4219 39.1276C51.2656 41.1196 50.6328 43.997 50.2109 45.5464Z" fill="white"/>
</svg>
