<svg width="51" height="49" viewBox="0 0 51 49" fill="none" xmlns="http://www.w3.org/2000/svg">
<path d="M25.5172 2.47359C25.732 2.47359 25.8736 2.85841 25.8736 2.85841L32.6514 17.0411L48.606 19.4355L37.0616 31.0636L39.787 47.4706L25.5172 39.718L11.2474 47.4706L13.9729 31.0636L2.4285 19.4348L18.3831 17.0404L25.1547 2.86976C25.1547 2.86976 25.3025 2.47359 25.5172 2.47359ZM25.5172 0.600098C24.9207 0.600098 24.3781 0.938807 24.1234 1.46955L17.3387 15.6666L2.19606 17.9401C1.62573 18.0255 1.15238 18.4179 0.968423 18.9554C0.78524 19.4922 0.923012 20.085 1.32632 20.491L12.3281 31.5724L9.72811 47.2256C9.63267 47.7972 9.87819 48.3725 10.3608 48.7052C10.6255 48.8889 10.9357 48.9819 11.2467 48.9819C11.5022 48.9819 11.7593 48.9184 11.9917 48.7929L25.5165 41.4449L39.0412 48.7929C39.2737 48.9184 39.5307 48.9819 39.7863 48.9819C40.0972 48.9819 40.4082 48.8889 40.6722 48.7052C41.1547 48.3725 41.4003 47.7972 41.3048 47.2256L38.7049 31.5724L49.7066 20.491C50.1092 20.085 50.2477 19.4922 50.0645 18.9554C49.8813 18.4179 49.4072 18.0263 48.8369 17.9401L33.6943 15.6674L26.9111 1.46955C26.6571 0.938807 26.1137 0.600098 25.5172 0.600098Z" fill="#1A1A1A"/>
<path d="M25.517 2.47363C25.7317 2.47363 25.8733 2.85846 25.8733 2.85846L32.6511 17.0412L48.6057 19.4356L37.0613 31.0636L39.7868 47.4706L25.517 39.7181L11.2472 47.4706L13.9726 31.0636L2.42822 19.4348L18.3828 17.0404L25.1544 2.8698C25.1544 2.8698 25.3022 2.47363 25.517 2.47363Z" fill="#FED131"/>
</svg>
