<svg width="68" height="72" viewBox="0 0 68 72" fill="none" xmlns="http://www.w3.org/2000/svg">
<path d="M33.75 71.3275C52.3896 71.3275 67.5 55.4722 67.5 35.9137C67.5 16.3553 52.3896 0.5 33.75 0.5C15.1104 0.5 0 16.3553 0 35.9137C0 55.4722 15.1104 71.3275 33.75 71.3275Z" fill="url(#paint0_linear_18_198)"/>
<path d="M50.5927 21.2648C50.8931 19.2272 49.047 17.619 47.3204 18.4145L12.9331 34.2565C11.6949 34.8269 11.7855 36.7949 13.0696 37.2239L20.1611 39.5936C21.5147 40.0459 22.9801 39.8119 24.1621 38.9552L40.1505 27.3648C40.6326 27.0152 41.1581 27.7346 40.7461 28.18L29.2374 40.6305C28.121 41.8384 28.3425 43.885 29.6855 44.7686L42.5708 53.2471C44.016 54.198 45.8752 53.2428 46.1454 51.4102L50.5927 21.2648Z" fill="white"/>
<defs>
<linearGradient id="paint0_linear_18_198" x1="33.75" y1="0.5" x2="33.75" y2="71.3275" gradientUnits="userSpaceOnUse">
<stop stop-color="#37BBFE"/>
<stop offset="1" stop-color="#007DBB"/>
</linearGradient>
</defs>
</svg>
