<svg width="68" height="71" viewBox="0 0 68 71" fill="none" xmlns="http://www.w3.org/2000/svg">
<path fill-rule="evenodd" clip-rule="evenodd" d="M67.5 32.925C67.5 11.9703 59.7115 2.3584 33.75 2.3584C7.78846 2.3584 0 11.9703 0 32.925C0 47.8376 3.94463 57.0056 15.5769 61.0526V68.1077C15.5769 70.7048 19.015 71.8908 20.7958 69.9086L26.7985 63.2268C28.9558 63.4036 31.2701 63.4914 33.75 63.4914C59.7115 63.4914 67.5 53.8794 67.5 32.925ZM28.2326 58.4071C29.9534 58.5364 31.7906 58.6008 33.75 58.6008C55.7174 58.6008 62.3078 50.5267 62.3078 32.925C62.3078 15.3231 55.7174 7.24903 33.75 7.24903C11.7825 7.24903 5.19232 15.3231 5.19232 32.925C5.19232 45.3664 8.48487 53.0477 18.1731 56.4822V66.9345C18.1731 67.8457 19.3795 68.2619 20.0044 67.5662L28.2326 58.4071Z" fill="#BFC8D0"/>
<path d="M33.75 56.8612C31.765 56.8612 29.9042 56.7958 28.1607 56.664L19.8257 65.9778C19.1928 66.6852 17.9708 66.2618 17.9708 65.3353V54.7069C8.15673 51.2146 4.82141 43.4037 4.82141 30.7524C4.82141 12.8537 11.4972 4.64355 33.75 4.64355C56.0028 4.64355 62.6786 12.8537 62.6786 30.7524C62.6786 48.6509 56.0028 56.8612 33.75 56.8612Z" fill="#9179EE"/>
<path fill-rule="evenodd" clip-rule="evenodd" d="M67.5 30.6403C67.5 9.68567 59.7115 0.0737305 33.75 0.0737305C7.78846 0.0737305 0 9.68567 0 30.6403C0 45.5529 3.94463 54.721 15.5769 58.768V65.823C15.5769 68.4201 19.015 69.6061 20.7958 67.6239L26.7985 60.9421C28.9558 61.119 31.2701 61.2067 33.75 61.2067C59.7115 61.2067 67.5 51.5947 67.5 30.6403ZM28.2326 56.1224C29.9534 56.2518 31.7906 56.3162 33.75 56.3162C55.7174 56.3162 62.3078 48.2421 62.3078 30.6403C62.3078 13.0384 55.7174 4.96436 33.75 4.96436C11.7825 4.96436 5.19232 13.0384 5.19232 30.6403C5.19232 43.0817 8.48487 50.7631 18.1731 54.1975V64.6498C18.1731 65.561 19.3795 65.9773 20.0044 65.2816L28.2326 56.1224Z" fill="white"/>
<path d="M23.0059 25.5131L22.908 25.5645L22.8217 25.6321C22.1549 26.1549 21.1554 27.5897 22.031 29.3634C22.7605 30.8412 24.386 33.8591 27.2423 36.1329C30.0355 38.3569 33.0183 39.5529 34.9775 39.9445L35.1007 39.9692H35.213C35.2183 39.9697 35.2302 39.9708 35.2492 39.9735C35.2957 39.9797 35.3519 39.9889 35.4404 40.0035C35.4556 40.006 35.4712 40.0087 35.4876 40.0115C36.0905 40.1125 37.5358 40.3546 38.7471 39.2107C39.5246 38.4763 40.2343 37.7107 40.5398 37.3664C40.7543 37.1809 41.4537 36.7966 42.3384 37.0801C44.0138 37.6168 46.0058 38.8277 46.9686 39.4417C47.714 39.9173 49.4013 41.0629 50.1619 41.5834C50.225 41.6266 50.374 41.7687 50.4541 41.9654C50.5182 42.1226 50.5527 42.3387 50.3986 42.6515C50.1127 43.2314 49.2427 44.3383 48.0643 45.3066C46.8645 46.2927 45.616 46.911 44.6155 46.911C44.6192 46.911 44.6155 46.9105 44.6042 46.9091C44.5596 46.9034 44.394 46.8822 44.0659 46.8123C43.6971 46.7339 43.1988 46.6108 42.5898 46.4371C41.3731 46.0901 39.7406 45.5493 37.8552 44.7804C34.0814 43.2419 29.3307 40.8054 24.8829 37.2172C22.0853 34.9603 19.4458 31.8398 17.3904 28.9188C15.3178 25.973 13.9314 23.3625 13.5541 22.1568L13.5277 22.0723L13.4879 21.9928C13.394 21.8047 13.2616 21.4028 13.259 20.947C13.2564 20.5068 13.3728 20.0862 13.6799 19.7374C14.6925 18.5874 15.7646 17.4573 18.1297 16.3728C18.35 16.2718 18.6952 16.1828 19.0344 16.1776C19.3821 16.1723 19.5634 16.2541 19.6357 16.3143C20.5407 17.0664 21.9435 18.394 22.8885 19.5285C23.3769 20.1145 23.9668 20.8591 24.4586 21.5059C24.7045 21.8294 24.9212 22.1228 25.0864 22.356C25.169 22.473 25.2351 22.5697 25.2838 22.6441C25.3171 22.6953 25.3349 22.7252 25.3424 22.738C25.3465 22.7511 25.365 22.8064 25.3814 22.9071C25.4019 23.0339 25.4116 23.19 25.3978 23.3531C25.3691 23.6867 25.2534 23.9547 25.0454 24.1354C24.339 24.7484 23.3815 25.3159 23.0059 25.5131ZM34.4168 12.6765C34.4175 12.6759 34.4182 12.6752 34.419 12.6745C34.4363 12.6591 34.4717 12.6396 34.5277 12.6396C44.151 12.6396 51.8265 19.5804 51.8303 28.0001C51.8289 28.0021 51.8262 28.0049 51.8224 28.0085C51.805 28.0238 51.7693 28.0432 51.7137 28.0432C51.658 28.0432 51.6223 28.0238 51.6049 28.0085C51.6011 28.0049 51.5987 28.0021 51.597 28.0001C51.5931 19.4927 43.8827 12.7134 34.5277 12.7134C34.4717 12.7134 34.4363 12.6939 34.419 12.6785C34.4182 12.6778 34.4175 12.6771 34.4168 12.6765ZM34.419 22.1122C34.4182 22.1116 34.4175 22.1109 34.4168 22.1104C34.4175 22.1097 34.4182 22.109 34.419 22.1084C34.4363 22.0931 34.4717 22.0734 34.5277 22.0734C38.3101 22.0734 41.2504 24.7904 41.2543 28.0001C41.2528 28.0021 41.2502 28.0049 41.2463 28.0085C41.229 28.0238 41.1935 28.0432 41.1376 28.0432C41.0819 28.0432 41.0462 28.0238 41.0289 28.0085C41.025 28.0049 41.0226 28.0021 41.0209 28.0001C41.0171 24.7029 38.0418 22.1472 34.5277 22.1472C34.4717 22.1472 34.4363 22.1278 34.419 22.1122ZM34.419 17.3954C34.4182 17.3947 34.4175 17.394 34.4168 17.3934C34.4175 17.3928 34.4182 17.3921 34.419 17.3915C34.4363 17.376 34.4717 17.3566 34.5277 17.3566C41.2307 17.3566 46.5383 22.1854 46.5424 28.0001C46.5407 28.0021 46.5383 28.0049 46.5345 28.0085C46.5171 28.0238 46.4814 28.0432 46.4258 28.0432C46.3698 28.0432 46.3341 28.0238 46.317 28.0085C46.3132 28.0049 46.3105 28.0021 46.3091 28.0001C46.3052 22.0978 40.9621 17.4303 34.5277 17.4303C34.4717 17.4303 34.4363 17.4108 34.419 17.3954Z" fill="white"/>
<path d="M35.4404 40.0035C35.3519 39.9889 35.2957 39.9797 35.2492 39.9735C35.2302 39.9708 35.2183 39.9697 35.213 39.9692H35.1007L34.9775 39.9445C33.0183 39.5529 30.0355 38.3569 27.2423 36.1329C24.386 33.8591 22.7605 30.8411 22.031 29.3634C21.1554 27.5897 22.1549 26.1549 22.8217 25.6321L22.908 25.5645L23.0059 25.5131C23.3815 25.3159 24.339 24.7484 25.0454 24.1354C25.2534 23.9547 25.3691 23.6867 25.3978 23.3531C25.4116 23.19 25.4019 23.0339 25.3814 22.9071C25.365 22.8064 25.3465 22.7511 25.3424 22.738C25.3349 22.7252 25.3171 22.6953 25.2838 22.6441C25.2351 22.5697 25.169 22.473 25.0864 22.356C24.9212 22.1228 24.7045 21.8294 24.4586 21.5059C23.9668 20.8591 23.3769 20.1145 22.8885 19.5285C21.9435 18.394 20.5407 17.0664 19.6357 16.3143C19.5634 16.2541 19.3821 16.1723 19.0344 16.1776C18.6952 16.1828 18.35 16.2718 18.1297 16.3728C15.7646 17.4573 14.6925 18.5874 13.6799 19.7374C13.3728 20.0862 13.2564 20.5068 13.259 20.947C13.2616 21.4028 13.394 21.8047 13.4879 21.9928L13.5277 22.0723L13.5541 22.1568C13.9314 23.3625 15.3178 25.973 17.3904 28.9188C19.4458 31.8398 22.0853 34.9603 24.8829 37.2172C29.3307 40.8054 34.0814 43.2419 37.8552 44.7804C39.7406 45.5493 41.3731 46.0901 42.5898 46.4371C43.1988 46.6108 43.6971 46.7339 44.0659 46.8123C44.394 46.8822 44.5596 46.9034 44.6042 46.9091C44.6155 46.9105 44.6192 46.911 44.6155 46.911C45.616 46.911 46.8645 46.2927 48.0643 45.3066C49.2427 44.3383 50.1127 43.2314 50.3986 42.6515C50.5527 42.3387 50.5182 42.1226 50.4541 41.9654C50.374 41.7687 50.225 41.6266 50.1619 41.5834C49.4013 41.0629 47.714 39.9173 46.9686 39.4417C46.0058 38.8277 44.0138 37.6168 42.3384 37.0801C41.4537 36.7966 40.7543 37.1809 40.5398 37.3664C40.2343 37.7107 39.5246 38.4763 38.7471 39.2107C37.5358 40.3546 36.0905 40.1125 35.4876 40.0115C35.4712 40.0087 35.4556 40.006 35.4404 40.0035ZM35.4404 40.0035L35.6482 38.8782M34.4168 12.6765C34.4175 12.6759 34.4182 12.6752 34.419 12.6745C34.4363 12.6591 34.4717 12.6396 34.5277 12.6396C44.151 12.6396 51.8265 19.5804 51.8303 28.0001C51.8289 28.0021 51.8262 28.0049 51.8224 28.0085C51.805 28.0238 51.7693 28.0432 51.7137 28.0432C51.658 28.0432 51.6223 28.0238 51.6049 28.0085C51.6011 28.0049 51.5987 28.0021 51.597 28.0001C51.5931 19.4927 43.8827 12.7134 34.5277 12.7134C34.4717 12.7134 34.4363 12.6939 34.419 12.6785C34.4182 12.6778 34.4175 12.6771 34.4168 12.6765ZM34.419 22.1122C34.4182 22.1116 34.4175 22.1109 34.4168 22.1104C34.4175 22.1097 34.4182 22.109 34.419 22.1084C34.4363 22.0931 34.4717 22.0734 34.5277 22.0734C38.3101 22.0734 41.2504 24.7904 41.2543 28.0001C41.2528 28.0021 41.2502 28.0049 41.2463 28.0085C41.229 28.0238 41.1935 28.0432 41.1376 28.0432C41.0819 28.0432 41.0462 28.0238 41.0289 28.0085C41.025 28.0049 41.0226 28.0021 41.0209 28.0001C41.0171 24.7029 38.0418 22.1472 34.5277 22.1472C34.4717 22.1472 34.4363 22.1278 34.419 22.1122ZM34.419 17.3954C34.4182 17.3947 34.4175 17.394 34.4168 17.3934C34.4175 17.3928 34.4182 17.3921 34.419 17.3915C34.4363 17.376 34.4717 17.3566 34.5277 17.3566C41.2307 17.3566 46.5383 22.1854 46.5424 28.0001C46.5407 28.0021 46.5383 28.0049 46.5345 28.0085C46.5171 28.0238 46.4814 28.0432 46.4258 28.0432C46.3698 28.0432 46.3341 28.0238 46.317 28.0085C46.3132 28.0049 46.3105 28.0021 46.3091 28.0001C46.3052 22.0978 40.9621 17.4303 34.5277 17.4303C34.4717 17.4303 34.4363 17.4108 34.419 17.3954Z" stroke="white" stroke-width="2" stroke-linecap="round"/>
</svg>
